<svg width="50" height="50" viewBox="0 0 50 50" fill="none" xmlns="http://www.w3.org/2000/svg">
<circle cx="25" cy="25" r="25" fill="#4B73F5"/>
<path d="M31.5144 15.748V34H27.0684V23.054L22.9864 34H19.3984L15.2904 23.028V34H10.8444V15.748H16.0964L21.2184 28.384L26.2884 15.748H31.5144ZM36.9476 17.984C36.1676 17.984 35.5263 17.7587 35.0236 17.308C34.5383 16.84 34.2956 16.268 34.2956 15.592C34.2956 14.8987 34.5383 14.3267 35.0236 13.876C35.5263 13.408 36.1676 13.174 36.9476 13.174C37.7103 13.174 38.3343 13.408 38.8196 13.876C39.3223 14.3267 39.5736 14.8987 39.5736 15.592C39.5736 16.268 39.3223 16.84 38.8196 17.308C38.3343 17.7587 37.7103 17.984 36.9476 17.984ZM39.1576 19.492V34H34.7116V19.492H39.1576Z" fill="#F5F5F5"/>
</svg>
